<?xml version="1.0" encoding="utf-8"?>
<!-- Generator: Adobe Illustrator 25.2.0, SVG Export Plug-In . SVG Version: 6.00 Build 0)  -->
<svg version="1.1" id="Capa_1" xmlns="http://www.w3.org/2000/svg" xmlns:xlink="http://www.w3.org/1999/xlink" x="0px" y="0px"
	 viewBox="0 0 1920 949.46" style="enable-background:new 126 4 1923 949.46;" xml:space="preserve">
<style type="text/css">
	.st0{fill:#0051ffb0;}
</style>
<path class="st0" d="M1920,0c-115.84,53.03-198.87,54.52-254,45.46c-28.06-4.61-68.34-15.48-140.39-24.48
	c0,0-59.83-7.66-117.11-10.52c-150.53-7.51-423.62-21.14-507.5,110c-63.42,99.15,40.87,187.96-40,347.5
	c-27.62,54.5-54.04,72.26-66.84,134.48c-19.17,93.21,22,141.4-5.66,190.52c-31.36,55.69-121.76,60.34-182.5,62.5
	C323.56,865.52,10.46,836.29,0,876.77c-0.1,0.37-0.02,0.19,0,38.69c0.01,14.81,0,26.76,0,34c203.67,0,407.33,0,611,0
	c436.33,0,872.67,0,1309,0c0-134.67,0-269.33,0-404C1920,363.64,1920,181.82,1920,0z"/>
</svg>
